#!OML:ASF I:\Actors\actors\Patient Classification 2\Patient 1\Session 1\actor1.ASF
:FULLY-SPECIFIED
:DEGREES
462
root -0.572329 18.7441 5.70885 3.87016 -5.59198 -2.60753
lowerback 5.36429 -1.84751 -3.78118
upperback 2.01202 -2.66915 -1.43696
thorax -0.829241 -1.34127 0.798085
lowerneck -15.1611 0.625406 4.76947
upperneck 33.2853 -1.68836 2.81838
head 13.8745 0.200393 0.010367
rclavicle -5.36719e-015 -3.18055e-015
rhumerus -8.23506 46.4843 -79.7107
rradius 88.9328
rwrist 16.1404
rhand -2.8584 -61.4105
rfingers 7.12502
rthumb 22.8499 -269.923
lclavicle -5.36719e-015 -3.18055e-015
lhumerus 7.08239 -35.4258 57.723
lradius 68.8867
lwrist 14.459
lhand -7.57154 -49.2118
lfingers 7.12502
lthumb 18.3211 -20.0546
rfemur 0 0 0
rtibia 0
rfoot 0 0
rtoes 0
lfemur -5.52366 -5.67365 -12.2197
ltibia 22.0431
lfoot -25.718 16.9431
ltoes -52.5753
463
root -0.569361 18.7396 5.70636 3.72336 -5.71608 -2.62566
lowerback 5.56782 -1.83906 -3.89476
upperback 2.09605 -2.67094 -1.40359
thorax -0.848949 -1.34325 0.901381
lowerneck -15.1366 0.693662 4.97373
upperneck 33.0634 -1.57958 2.6535
head 13.7692 0.24483 -0.0753112
rclavicle -3.57812e-014 3.33958e-014
rhumerus -8.63357 46.51 -80.4379
rradius 89.319
rwrist 16.3708
rhand -3.3535 -61.7812
rfingers 7.12502
rthumb 22.3747 -269.495
lclavicle -3.57812e-014 3.33958e-014
lhumerus 7.16 -35.5203 57.2482
lradius 69.1007
lwrist 14.6574
lhand -7.69134 -49.4113
lfingers 7.12502
lthumb 18.2058 -20.2433
rfemur 0 0 0
rtibia 0
rfoot 0 0
rtoes 0
lfemur -5.348 -5.34785 -12.2227
ltibia 22.0361
lfoot -25.5213 16.9026
ltoes -52.8892
464
root -0.562612 18.738 5.70421 3.71663 -5.7122 -2.58939
lowerback 5.63133 -1.93193 -3.9884
upperback 2.13849 -2.80035 -1.35109
thorax -0.827599 -1.40915 1.01608
lowerneck -15.005 0.831131 5.08152
upperneck 32.8545 -1.33638 2.49793
head 13.6485 0.33559 -0.119009
rclavicle 5.1684e-015 -1.11319e-014
rhumerus -8.91388 46.3033 -81.1753
rradius 90.553
rwrist 15.9937
rhand -4.44394 -61.8737
rfingers 7.12502
rthumb 21.3276 -269.28
lclavicle 5.1684e-015 -1.11319e-014
lhumerus 7.03002 -35.5152 56.8077
lradius 69.4778
lwrist 14.8668
lhand -7.93626 -49.7775
lfingers 7.12502
lthumb 17.9702 -20.5877
rfemur 0 0 0
rtibia 0
rfoot 0 0
rtoes 0
lfemur -5.38573 -5.0808 -12.2764
ltibia 22.0603
lfoot -25.2354 16.9302
ltoes -53.3426
465
root -0.555158 18.7406 5.70541 3.83778 -5.62409 -2.53287
lowerback 5.5071 -2.08601 -3.93695
upperback 2.14176 -2.99641 -1.40285
thorax -0.751546 -1.50795 0.940029
lowerneck -14.7999 1.01627 5.2371
upperneck 32.7578 -1.07273 2.43845
head 13.565 0.455888 -0.129257
rclavicle 5.12864e-014 -1.11319e-014
rhumerus -9.1893 45.8702 -82.1526
rradius 92.1035
rwrist 15.5936
rhand -4.49795 -62.277
rfingers 7.12502
rthumb 21.2757 -268.871
lclavicle 5.12864e-014 -1.11319e-014
lhumerus 6.83937 -35.6294 56.1139
lradius 70.0003
lwrist 15.1947
lhand -8.2156 -50.1499
lfingers 7.12502
lthumb 17.7014 -20.9356
rfemur 0 0 0
rtibia 0
rfoot 0 0
rtoes 0
lfemur -5.55739 -4.99262 -12.3424
ltibia 22.0677
lfoot -25.0936 16.9304
ltoes -53.5933
466
root -0.548818 18.7433 5.70881 3.93935 -5.55515 -2.46469
lowerback 5.36035 -2.21434 -3.82459
upperback 2.16248 -3.15485 -1.55391
thorax -0.656346 -1.58784 0.724255
lowerneck -14.6747 1.18447 5.53088
upperneck 32.7728 -0.890683 2.38876
head 13.5492 0.56267 -0.171638
rclavicle 3.47873e-014 -3.18055e-015
rhumerus -9.47312 45.2351 -83.228
rradius 93.6713
rwrist 15.8287
rhand -5.41356 -62.3384
rfingers 7.12502
rthumb 20.396 -268.713
lclavicle 3.47873e-014 -3.18055e-015
lhumerus 6.73627 -35.9147 55.1716
lradius 70.6252
lwrist 15.5327
lhand -8.41154 -50.3278
lfingers 7.12502
lthumb 17.5128 -21.0966
rfemur 0 0 0
rtibia 0
rfoot 0 0
rtoes 0
lfemur -5.70199 -4.90696 -12.427
ltibia 22.0667
lfoot -24.9133 16.9875
ltoes -53.85
467
root -0.544322 18.7451 5.71286 3.9789 -5.49282 -2.43312
lowerback 5.29863 -2.32864 -3.7902
upperback 2.19077 -3.30181 -1.63525
thorax -0.593817 -1.66201 0.625806
lowerneck -14.6557 1.32053 5.73082
upperneck 32.859 -0.747604 2.36321
head 13.5873 0.647095 -0.193459
rclavicle 1.5704e-014 2.8625e-014
rhumerus -9.81696 44.659 -84.2393
rradius 95.1958
rwrist 16.1434
rhand -6.38346 -62.3595
rfingers 7.12502
rthumb 19.4637 -268.595
lclavicle 1.5704e-014 2.8625e-014
lhumerus 6.63505 -36.2388 54.2759
lradius 71.2592
lwrist 15.7838
lhand -8.46058 -50.3979
lfingers 7.12502
lthumb 17.4656 -21.1625
rfemur 0 0 0
rtibia 0
rfoot 0 0
rtoes 0
lfemur -5.77006 -4.87792 -12.4715
ltibia 22.0599
lfoot -24.7546 17.0724
ltoes -53.8526
468
root -0.54281 18.7465 5.71876 4.02375 -5.44362 -2.50439
lowerback 5.28247 -2.43557 -3.73489
upperback 2.15859 -3.44163 -1.64307
thorax -0.616481 -1.73076 0.594461
lowerneck -14.6539 1.43533 5.82833
upperneck 32.9896 -0.619447 2.36962
head 13.648 0.717944 -0.186752
rclavicle 3.37934e-014 -7.95139e-015
rhumerus -10.5208 44.1194 -85.4396
rradius 96.2197
rwrist 17.587
rhand -5.39926 -62.2508
rfingers 7.12502
rthumb 20.4098 -268.802
lclavicle 3.37934e-014 -7.95139e-015
lhumerus 6.43273 -36.6232 53.4923
lradius 71.8718
lwrist 15.8343
lhand -8.36149 -50.6024
lfingers 7.12502
lthumb 17.561 -21.3756
rfemur 0 0 0
rtibia 0
rfoot 0 0
rtoes 0
lfemur -5.76981 -5.08596 -12.3886
ltibia 22.0417
lfoot -24.9865 16.9689
ltoes -53.6067
469
root -0.541946 18.7472 5.72608 4.10406 -5.41372 -2.55001
lowerback 5.24007 -2.5193 -3.77045
upperback 2.07771 -3.55512 -1.62917
thorax -0.66883 -1.78585 0.634555
lowerneck -14.705 1.51302 5.86156
upperneck 33.141 -0.543316 2.41001
head 13.7285 0.763962 -0.162989
rclavicle 5.64548e-014 -1.59028e-015
rhumerus -11.7027 44.2955 -86.9184
rradius 96.471
rwrist 17.4415
rhand -7.17684 -62.1152
rfingers 7.12502
rthumb 18.7007 -268.764
lclavicle 5.64548e-014 -1.59028e-015
lhumerus 6.19356 -37.052 52.8593
lradius 72.3798
lwrist 15.7002
lhand -8.27219 -51.008
lfingers 7.12502
lthumb 17.6469 -21.7888
rfemur 0 0 0
rtibia 0
rfoot 0 0
rtoes 0
lfemur -5.79793 -5.31603 -12.338
ltibia 22.0241
lfoot -25.232 16.8897
ltoes -53.2128
470
root -0.540076 18.7472 5.73476 4.17004 -5.38081 -2.50288
lowerback 5.14952 -2.5837 -3.9722
upperback 2.01695 -3.64729 -1.59636
thorax -0.662366 -1.83213 0.781691
lowerneck -14.8456 1.55328 5.83122
upperneck 33.2648 -0.513205 2.46406
head 13.8155 0.784421 -0.12952
rclavicle -2.5842e-014 -9.54166e-015
rhumerus -12.8609 44.66 -88.2092
rradius 95.883
rwrist 18.7773
rhand -6.5769 -62.353
rfingers 7.12502
rthumb 19.2777 -268.583
lclavicle -2.5842e-014 -9.54166e-015
lhumerus 6.10238 -37.5243 52.3073
lradius 72.6443
lwrist 15.6805
lhand -8.51897 -51.2796
lfingers 7.12502
lthumb 17.4094 -22.0393
rfemur 0 0 0
rtibia 0
rfoot 0 0
rtoes 0
lfemur -5.87307 -5.39636 -12.4128
ltibia 22.0253
lfoot -25.1534 17.0894
ltoes -53.4768
471
root -0.538864 18.7459 5.74196 4.17643 -5.36987 -2.51539
lowerback 5.11129 -2.61969 -4.15322
upperback 1.97537 -3.7023 -1.53252
thorax -0.665527 -1.85988 0.949186
lowerneck -15.0151 1.56066 5.83547
upperneck 33.3811 -0.512081 2.42797
head 13.9043 0.784788 -0.142539
rclavicle 6.1822e-014 2.70347e-014
rhumerus -13.9115 45.3814 -89.3461
rradius 94.1875
rwrist 18.7629
rhand -7.77576 -62.4496
rfingers 7.12502
rthumb 18.1246 -268.375
lclavicle 6.1822e-014 2.70347e-014
lhumerus 6.12179 -38.0358 51.7752
lradius 72.7773
lwrist 15.7191
lhand -8.95927 -51.3099
lfingers 7.12502
lthumb 16.9856 -22.0326
rfemur 0 0 0
rtibia 0
rfoot 0 0
rtoes 0
lfemur -5.88854 -5.38538 -12.4191
ltibia 22.0536
lfoot -25.0669 17.2271
ltoes -53.6119
472
root -0.535582 18.7458 5.74211 4.185 -5.50241 -2.59905
lowerback 5.14386 -2.60789 -4.27644
upperback 1.92201 -3.69535 -1.45621
thorax -0.72586 -1.85526 1.09863
lowerneck -15.1675 1.54383 5.91065
upperneck 33.4931 -0.543964 2.32482
head 13.987 0.770325 -0.200446
rclavicle -5.76476e-014 -1.74931e-014
rhumerus -14.7113 46.2197 -90.3082
rradius 92.1559
rwrist 18.4593
rhand -7.07252 -63.0395
rfingers 7.12502
rthumb 18.8011 -267.849
lclavicle -5.76476e-014 -1.74931e-014
lhumerus 6.08939 -38.4394 51.3541
lradius 72.9199
lwrist 15.7644
lhand -9.21724 -51.2832
lfingers 7.12502
lthumb 16.7373 -21.9847
rfemur 0 0 0
rtibia 0
rfoot 0 0
rtoes 0
lfemur -5.87338 -5.56435 -12.359
ltibia 22.1417
lfoot -25.47 17.1583
ltoes -53.1407
473
root -0.524136 18.7459 5.73592 4.20179 -5.89936 -2.6429
lowerback 5.19258 -2.51027 -4.34219
upperback 1.88902 -3.57281 -1.44556
thorax -0.78825 -1.79277 1.14355
lowerneck -15.2741 1.50571 6.0204
upperneck 33.4855 -0.618325 2.24931
head 14.0061 0.742285 -0.26151
rclavicle 2.06736e-014 -1.27222e-014
rhumerus -15.228 47.0685 -91.0753
rradius 90.03
rwrist 17.7697
rhand -7.90978 -63.3207
rfingers 7.12502
rthumb 17.9956 -267.492
lclavicle 2.06736e-014 -1.27222e-014
lhumerus 6.10646 -38.7274 50.9243
lradius 73.0637
lwrist 15.9103
lhand -9.26084 -51.3543
lfingers 7.12502
lthumb 16.6953 -22.0522
rfemur 0 0 0
rtibia 0
rfoot 0 0
rtoes 0
lfemur -5.87271 -5.84108 -12.4239
ltibia 22.3073
lfoot -26.1412 17.3063
ltoes -52.3664
474
root -0.525081 18.7383 5.73962 3.90331 -5.82727 -3.11845
lowerback 5.45471 -2.53267 -4.04247
upperback 2.03635 -3.59496 -1.30993
thorax -0.791454 -1.80521 1.1264
lowerneck -15.3352 1.4565 6.12122
upperneck 33.3701 -0.711965 2.218
head 13.967 0.707827 -0.307307
rclavicle 2.50469e-014 -3.33958e-014
rhumerus -15.5627 47.4177 -91.628
rradius 89.1081
rwrist 18.6126
rhand -4.31524 -64.0368
rfingers 7.12502
rthumb 21.4512 -267.131
lclavicle 2.50469e-014 -3.33958e-014
lhumerus 6.20849 -38.9678 50.4411
lradius 73.2054
lwrist 15.989
lhand -9.19738 -51.4902
lfingers 7.12502
lthumb 16.7564 -22.1933
rfemur 0 0 0
rtibia 0
rfoot 0 0
rtoes 0
lfemur -5.56975 -5.63593 -11.8971
ltibia 22.44
lfoot -25.9813 17.1909
ltoes -52.7129
475
root -0.514042 18.7307 5.73016 3.6296 -6.21651 -3.65697
lowerback 5.92679 -2.41757 -3.59702
upperback 2.1368 -3.43674 -1.16939
thorax -0.976522 -1.72338 1.03528
lowerneck -15.3529 1.45069 6.12081
upperneck 33.1742 -0.727566 2.26126
head 13.8842 0.702009 -0.29358
rclavicle 4.17448e-014 -1.59028e-014
rhumerus -16.1005 47.7069 -92.2933
rradius 89.2761
rwrist 18.3497
rhand -7.60042 -63.659
rfingers 7.12502
rthumb 18.2933 -267.181
lclavicle 4.17448e-014 -1.59028e-014
lhumerus 6.24449 -39.1205 50.067
lradius 73.4542
lwrist 16.2659
lhand -9.08673 -51.3737
lfingers 7.12502
lthumb 16.8629 -22.0858
rfemur 0 0 0
rtibia 0
rfoot 0 0
rtoes 0
lfemur -5.22762 -5.42799 -11.4411
ltibia 22.5733
lfoot -25.9868 17.539
ltoes -52.9528
476
root -0.497519 18.7326 5.72313 3.67012 -6.30313 -3.25487
lowerback 6.00184 -2.42142 -4.01127
upperback 2.13006 -3.47022 -1.24375
thorax -1.00304 -1.74032 1.19486
lowerneck -15.2015 1.49728 6.12359
upperneck 32.8226 -0.624098 2.24902
head 13.6975 0.735089 -0.285324
rclavicle 3.71727e-014 -4.77083e-015
rhumerus -16.5204 47.4798 -92.8138
rradius 90.8261
rwrist 18.8387
rhand -6.17491 -63.9892
rfingers 7.12502
rthumb 19.6642 -266.985
lclavicle 3.71727e-014 -4.77083e-015
lhumerus 6.17397 -39.2199 49.8106
lradius 73.8385
lwrist 16.8683
lhand -9.02398 -51.2588
lfingers 7.12502
lthumb 16.9234 -21.9761
rfemur 0 0 0
rtibia 0
rfoot 0 0
rtoes 0
lfemur -5.30438 -5.40493 -11.9539
ltibia 22.6041
lfoot -26.0754 17.549
ltoes -53.1237
